<?xml version="1.0" standalone="no"?>
<!DOCTYPE svg PUBLIC "-//W3C//DTD SVG 20010904//EN"
 "http://www.w3.org/TR/2001/REC-SVG-20010904/DTD/svg10.dtd">
<svg version="1.0" xmlns="http://www.w3.org/2000/svg"
 width="2000.000000pt" height="2000.000000pt" viewBox="0 0 2000.000000 2000.000000"
 preserveAspectRatio="xMidYMid meet">

<g transform="translate(0.000000,2000.000000) scale(0.100000,-0.100000)"
fill="#000000" stroke="none">
<path d="M8380 17970 c-547 -35 -1081 -171 -1610 -410 -407 -185 -819 -440
-1150 -713 -123 -102 -373 -355 -471 -477 -341 -424 -534 -877 -593 -1390 -19
-158 -21 -416 -5 -577 l11 -114 -35 -82 c-136 -318 -238 -697 -283 -1057 -24
-186 -24 -556 0 -740 90 -696 311 -1672 633 -2788 30 -106 53 -195 52 -196 -2
-2 -38 -6 -80 -9 -239 -18 -394 -150 -461 -396 -73 -266 52 -1518 213 -2141
169 -650 401 -988 724 -1055 47 -10 97 -14 122 -10 l41 6 43 -128 c216 -654
534 -1291 877 -1763 693 -951 1560 -1522 2627 -1729 336 -65 756 -92 1126 -73
123 7 242 15 264 17 349 44 586 92 845 172 970 299 1788 930 2409 1856 295
441 550 970 716 1488 l56 176 56 -19 c101 -34 211 -23 308 32 62 35 169 144
220 224 222 347 409 1115 470 1931 4 44 8 100 10 125 12 141 15 443 6 565 -24
329 -128 510 -325 569 -61 19 -61 19 -59 36 2 14 116 518 163 720 11 47 31
137 45 200 233 1063 361 1723 422 2175 24 183 24 781 -1 1005 -51 465 -146
810 -321 1165 -209 423 -498 764 -885 1042 -282 202 -648 382 -1020 501 -300
96 -683 179 -980 213 l-105 12 -55 52 c-786 741 -1844 1302 -2830 1499 -179
36 -188 37 -325 55 -286 38 -585 48 -865 31z m3526 -1740 c41 -20 82 -52 120
-93 57 -60 129 -177 122 -198 -3 -9 -386 319 -387 332 -2 13 85 -12 145 -41z
m1264 -518 c235 -55 448 -161 640 -318 69 -56 192 -179 174 -173 -123 41
-1311 496 -1306 501 25 25 373 17 492 -10z m-2945 -962 c924 -52 1751 -273
2361 -631 116 -68 301 -193 389 -264 178 -142 375 -348 463 -484 20 -31 48
-69 63 -86 28 -32 36 -57 90 -325 106 -520 158 -1055 145 -1484 l-6 -208 34
-34 c26 -26 43 -34 69 -34 83 0 253 119 387 270 l65 72 12 -78 c38 -235 74
-604 89 -898 6 -117 5 -138 -7 -134 -8 3 -171 74 -363 157 -214 93 -362 151
-382 151 -24 0 -45 11 -79 40 -149 129 -329 249 -513 342 -74 37 -155 86 -180
108 -63 55 -206 124 -320 154 -302 80 -828 72 -1263 -20 -211 -44 -226 -57
-216 -184 4 -44 4 -80 1 -80 -2 0 -20 6 -39 14 l-34 15 5 -29 c5 -24 2 -31
-26 -45 -30 -15 -33 -15 -51 1 -18 16 -21 16 -36 1 -12 -12 -14 -19 -5 -30 9
-10 -1 -21 -51 -50 -34 -20 -101 -63 -149 -95 l-87 -60 -53 41 c-65 49 -213
120 -293 141 -239 61 -531 27 -801 -95 l-62 -27 -33 20 c-19 12 -83 47 -143
78 l-108 58 35 17 c33 15 56 49 44 62 -3 3 -31 -9 -62 -27 -41 -23 -63 -30
-81 -26 -21 6 -25 11 -19 29 20 66 21 65 -33 59 l-50 -4 13 38 c26 74 15 129
-35 165 -28 21 -188 56 -430 93 -615 94 -1103 39 -1390 -157 -25 -17 -71 -55
-102 -84 -32 -29 -62 -53 -67 -53 -5 0 -17 -3 -27 -7 -15 -6 -14 -1 6 33 15
24 18 34 8 26 -9 -7 -21 -25 -27 -40 -9 -22 -36 -40 -129 -84 -64 -31 -170
-88 -234 -127 -65 -39 -125 -71 -133 -71 -8 0 -193 -74 -412 -165 -218 -91
-398 -163 -400 -161 -13 13 165 1168 183 1185 2 2 5 2 7 0 12 -18 125 -149
185 -216 58 -65 81 -84 109 -89 51 -10 97 16 124 68 22 42 22 44 5 133 -60
325 -44 624 54 990 98 371 310 824 489 1047 71 88 230 247 326 323 203 164
511 338 790 448 653 257 1443 359 2380 307z m-2025 -3670 c329 -48 676 -166
967 -327 l102 -57 8 -56 c16 -112 7 -476 -16 -625 -66 -437 -213 -759 -450
-988 -139 -134 -277 -216 -461 -275 -142 -45 -255 -63 -445 -69 -245 -8 -408
18 -586 92 -275 115 -506 385 -639 744 -101 276 -164 681 -158 1021 l3 155 55
36 c126 84 332 185 494 244 170 61 433 116 626 129 110 8 368 -5 500 -24z
m4160 -30 c204 -25 422 -81 580 -149 49 -21 91 -34 92 -29 7 19 212 -121 377
-256 l73 -61 -5 -180 c-20 -622 -204 -1181 -488 -1480 -97 -102 -174 -159
-294 -216 -180 -85 -377 -117 -618 -98 -408 31 -722 170 -975 434 -285 295
-445 698 -468 1180 -8 164 10 382 34 408 34 38 282 195 417 264 153 78 246
109 442 147 111 21 171 29 388 50 64 6 352 -3 445 -14z m-2190 -256 c77 -18
191 -71 239 -111 l34 -29 -14 -89 c-22 -146 -17 -481 10 -640 111 -662 446
-1146 964 -1395 398 -192 923 -231 1282 -95 418 157 721 531 881 1089 72 248
119 545 131 813 3 79 9 143 12 143 3 0 160 -66 348 -147 l342 -148 4 -120 c5
-167 -3 -813 -13 -1030 -7 -155 -6 -185 7 -213 33 -70 127 -80 177 -21 14 17
26 37 26 45 0 8 10 14 23 14 13 0 52 21 88 46 131 93 277 154 368 154 197 0
257 -238 221 -865 -69 -1187 -371 -2171 -669 -2179 -50 -1 -123 32 -117 53 26
89 86 412 101 542 8 67 -10 111 -55 134 -39 20 -69 19 -108 -5 -41 -25 -45
-37 -67 -190 -17 -117 -35 -178 -35 -117 0 30 -34 67 -63 67 -26 0 -55 -17
-67 -40 -11 -21 9 -228 36 -373 15 -77 15 -77 -17 -192 -18 -64 -36 -112 -39
-108 -4 5 -12 41 -19 82 -14 87 -24 109 -57 121 -31 12 -79 -10 -89 -39 -6
-21 13 -142 52 -324 l25 -119 -33 -86 c-46 -124 -60 -155 -65 -150 -2 3 -11
53 -19 112 -8 59 -20 116 -25 126 -21 39 -88 37 -115 -3 -14 -21 -13 -39 5
-173 11 -82 27 -185 36 -230 l16 -80 -68 -135 c-37 -74 -68 -129 -70 -124 -3
10 -34 286 -34 305 0 20 -41 50 -68 50 -17 0 -38 -10 -51 -24 -21 -23 -23 -31
-17 -93 11 -109 46 -365 55 -405 8 -35 4 -44 -81 -180 -49 -79 -93 -147 -98
-152 -5 -5 -11 1 -14 15 -6 26 -31 200 -42 293 -11 96 -63 132 -120 82 l-28
-23 18 -143 c10 -79 27 -195 38 -259 11 -64 21 -121 21 -128 1 -7 -36 -62 -83
-123 -68 -89 -86 -107 -91 -92 -4 10 -18 124 -30 253 -21 212 -26 236 -46 257
-28 28 -55 28 -89 -2 l-28 -23 13 -149 c11 -129 38 -352 56 -464 5 -33 0 -40
-80 -124 -47 -49 -87 -87 -90 -85 -8 9 -33 242 -45 424 -14 211 -20 239 -60
255 -25 10 -34 10 -55 -4 -13 -9 -28 -24 -33 -33 -15 -30 32 -592 58 -708 5
-22 10 -45 10 -52 0 -12 -216 -203 -230 -203 -16 0 -64 334 -90 630 -10 104
-15 129 -32 148 -28 29 -63 28 -94 -4 -25 -24 -26 -29 -19 -97 28 -319 55
-533 86 -680 20 -95 20 -99 2 -113 -47 -37 -244 -166 -247 -163 -15 18 -60
509 -74 807 -7 156 -10 174 -29 193 -27 27 -69 27 -96 1 -18 -19 -20 -32 -19
-109 6 -257 42 -692 71 -863 10 -58 16 -108 12 -112 -10 -11 -322 -170 -326
-166 -8 8 -25 144 -40 313 -12 152 -45 801 -45 904 0 38 -38 81 -73 81 -13 0
-34 -10 -46 -22 -26 -24 -26 -21 -1 -573 16 -342 46 -683 65 -746 4 -12 -9
-22 -52 -39 -106 -41 -226 -80 -232 -75 -15 15 -44 568 -61 1180 l-10 340 -25
23 c-34 29 -60 28 -91 -3 l-26 -26 7 -197 c22 -707 38 -1068 56 -1251 5 -57 6
-108 2 -112 -11 -11 -280 -75 -287 -69 -2 3 0 124 6 270 5 146 8 514 6 817 -3
550 -3 553 -25 574 -27 27 -69 28 -96 0 -22 -21 -22 -22 -19 -564 3 -469 -10
-1112 -22 -1124 -5 -6 -185 -33 -216 -33 l-25 0 -2 882 c-1 853 -2 882 -21
907 -24 32 -81 41 -103 15 -12 -14 -14 -156 -14 -915 0 -493 -3 -900 -6 -903
-3 -3 -76 -9 -163 -12 -153 -7 -158 -7 -153 12 25 82 47 701 47 1310 0 470 0
481 -20 502 -13 14 -33 22 -54 22 -66 0 -63 29 -70 -650 -3 -338 -10 -703 -16
-810 -10 -195 -27 -380 -35 -388 -2 -3 -69 -1 -147 4 -134 8 -143 10 -141 29
24 220 100 1591 90 1618 -3 9 -17 23 -32 33 -21 14 -30 14 -54 5 -15 -7 -33
-22 -39 -34 -6 -12 -16 -125 -22 -252 -29 -601 -79 -1356 -90 -1368 -7 -8
-182 13 -280 34 l-46 10 13 97 c27 219 103 1240 103 1394 0 58 -3 69 -22 82
-33 24 -73 20 -96 -8 -16 -21 -20 -49 -26 -163 -20 -393 -98 -1358 -111 -1371
-3 -4 -266 65 -270 71 -1 1 4 47 11 102 15 118 47 507 69 830 31 477 31 420 2
449 -32 32 -61 33 -91 3 -21 -21 -25 -37 -30 -118 -43 -646 -73 -1024 -92
-1172 -8 -55 3 -55 -144 3 -142 57 -170 70 -170 78 0 4 9 54 19 112 31 167 70
536 96 898 13 187 13 216 0 241 -8 16 -25 31 -39 35 -29 7 -72 -10 -81 -32 -3
-9 -13 -111 -20 -227 -29 -415 -89 -942 -110 -963 -10 -10 -255 132 -255 148
0 5 9 69 19 142 18 125 55 449 85 743 8 85 10 137 3 151 -27 61 -109 51 -127
-15 -5 -20 -21 -153 -35 -296 -29 -285 -72 -635 -79 -642 -5 -6 -72 39 -177
118 l-76 58 12 83 c7 46 32 260 56 476 l44 394 -28 24 c-35 30 -61 30 -91 1
-19 -19 -25 -41 -35 -138 -29 -275 -82 -724 -86 -728 -3 -2 -45 34 -96 80 -88
81 -91 84 -85 118 26 145 60 380 83 562 26 207 27 217 10 242 -13 21 -26 27
-52 27 -59 0 -68 -19 -88 -180 -20 -162 -64 -476 -74 -529 l-6 -35 -31 36
c-17 20 -59 68 -94 108 -48 54 -62 78 -58 94 6 25 69 467 86 607 14 108 7 134
-35 145 -34 8 -72 -3 -84 -24 -5 -9 -26 -146 -47 -304 -21 -159 -42 -288 -46
-288 -4 0 -37 42 -73 92 -51 71 -65 98 -60 116 16 64 75 574 75 650 0 66 -78
98 -118 48 -14 -19 -22 -54 -31 -143 -6 -65 -19 -183 -28 -262 -19 -166 -9
-166 -108 1 l-64 107 15 78 c8 43 27 164 43 270 23 162 26 196 15 221 -23 56
-94 55 -119 -1 -7 -17 -23 -104 -35 -192 -12 -88 -23 -164 -25 -170 -1 -5 -38
62 -81 150 l-77 160 42 214 c42 214 42 214 23 240 -21 29 -42 36 -78 27 -30
-8 -47 -44 -64 -141 -7 -38 -16 -76 -20 -83 -9 -17 -103 222 -104 263 0 17 23
117 52 223 49 182 51 195 37 223 -18 34 -57 47 -91 28 -24 -12 -40 -53 -74
-188 -6 -23 -13 -41 -15 -40 -2 2 -22 68 -45 146 -41 141 -42 143 -26 190 8
27 33 117 55 200 43 162 43 190 2 212 -56 31 -92 1 -117 -98 -10 -39 -21 -71
-24 -71 -3 0 -20 72 -37 161 -35 178 -48 203 -111 215 -47 9 -98 -17 -119 -60
-16 -33 -15 -42 12 -183 15 -81 47 -227 71 -323 24 -96 44 -179 44 -183 0 -13
-78 2 -128 24 -61 26 -156 120 -222 220 -146 221 -271 619 -359 1144 -79 467
-148 1288 -123 1470 22 163 87 258 199 291 85 25 221 15 341 -25 52 -17 107
-31 123 -31 24 0 29 -4 29 -24 0 -13 13 -38 29 -55 24 -26 36 -31 76 -31 38 0
52 5 76 29 l29 29 0 285 c0 156 7 384 15 508 15 222 33 421 40 427 4 4 746
312 751 312 2 0 4 -46 4 -102 0 -448 94 -913 249 -1242 140 -297 366 -538 626
-665 198 -97 344 -130 606 -138 346 -10 605 42 860 174 255 131 483 362 613
621 20 39 38 72 40 72 4 0 -1 -132 -15 -415 -11 -242 -40 -518 -69 -655 -11
-52 -20 -109 -20 -125 0 -43 34 -156 70 -233 17 -36 29 -66 28 -67 -2 -2 -29
-10 -61 -19 -31 -9 -72 -30 -90 -46 -27 -24 -32 -35 -32 -74 0 -36 6 -51 29
-75 39 -41 66 -45 142 -21 81 25 108 25 159 0 22 -11 48 -19 58 -20 10 0 38
-14 63 -31 139 -96 374 -149 437 -99 36 29 50 83 32 126 -18 43 -50 63 -122
74 -82 13 -167 44 -224 81 -106 68 -209 209 -254 347 -17 52 -17 58 4 165 11
62 25 144 30 182 39 276 67 978 56 1415 -4 151 -8 392 -10 535 -1 143 -5 272
-9 286 -7 24 -3 28 51 51 79 36 143 56 238 78 103 24 295 26 385 4z"/>
<path d="M7024 11389 c-58 -22 -121 -72 -148 -119 -22 -39 -26 -41 118 62 112
80 118 91 30 57z"/>
<path d="M12820 11385 c0 -4 41 -47 90 -97 90 -91 107 -101 71 -42 -32 53
-161 164 -161 139z"/>
<path d="M7700 10393 c-142 -23 -329 -122 -471 -249 -107 -95 -240 -248 -253
-290 -15 -48 44 -105 93 -89 11 3 47 39 80 78 77 95 222 233 293 280 31 20 58
37 61 37 3 0 -2 -19 -10 -42 -24 -69 -14 -199 21 -268 37 -75 106 -143 180
-177 52 -24 73 -28 146 -28 70 1 94 5 140 27 83 39 135 89 175 171 45 91 54
167 31 256 -9 35 -15 65 -14 67 2 1 40 -22 86 -52 81 -55 201 -166 298 -276
55 -64 84 -73 125 -39 42 34 32 77 -39 163 -172 211 -394 361 -617 418 -74 19
-248 26 -325 13z"/>
<path d="M11820 10423 c-138 -21 -266 -69 -385 -147 -153 -100 -355 -315 -355
-379 0 -30 39 -77 64 -77 32 0 63 23 101 77 55 76 186 199 272 256 40 26 74
47 77 47 2 0 -5 -24 -16 -52 -16 -43 -19 -70 -16 -138 5 -107 38 -178 115
-251 78 -74 128 -94 238 -94 82 0 96 3 157 33 82 40 148 111 179 190 29 73 32
207 6 266 -10 22 -16 41 -14 43 2 2 51 -28 109 -67 103 -68 259 -210 374 -342
38 -44 57 -58 78 -58 34 0 76 41 76 74 0 34 -62 111 -199 246 -216 213 -410
326 -631 366 -71 13 -174 16 -230 7z"/>
<path d="M4910 8979 c-61 -24 -95 -92 -70 -140 7 -13 36 -47 66 -76 112 -109
197 -252 253 -424 41 -128 61 -215 61 -273 0 -48 -2 -52 -65 -113 -45 -45 -76
-87 -102 -141 -36 -72 -38 -81 -38 -171 0 -90 2 -101 36 -172 42 -87 130 -188
225 -255 78 -56 126 -60 176 -15 28 25 33 36 33 76 0 41 -4 50 -36 78 -20 18
-65 56 -98 86 -111 96 -146 193 -101 280 11 22 51 70 90 107 56 54 74 79 85
118 67 225 -104 708 -334 943 -88 90 -130 111 -181 92z"/>
<path d="M14945 8783 c-94 -23 -237 -260 -310 -513 -40 -137 -85 -383 -85
-461 0 -57 19 -92 59 -109 16 -6 52 -41 81 -76 137 -172 120 -264 -75 -395
-54 -36 -104 -74 -112 -84 -18 -26 -16 -96 5 -121 49 -61 104 -59 212 8 111
68 198 156 241 244 32 64 34 75 34 164 -1 118 -21 174 -101 279 l-57 74 6 151
c4 83 13 203 21 266 13 103 20 124 65 215 28 55 73 126 101 158 54 63 62 95
36 145 -20 39 -78 65 -121 55z"/>
<path d="M7420 8340 c-11 -11 -20 -29 -20 -40 0 -28 35 -60 65 -60 37 0 68 35
60 68 -12 52 -68 69 -105 32z"/>
<path d="M10539 7786 c-72 -20 -147 -66 -195 -119 -37 -42 -44 -56 -44 -91 0
-48 19 -80 62 -102 43 -22 87 -11 129 32 45 47 80 64 152 74 72 11 108 34 123
81 15 44 2 88 -33 116 -23 18 -40 23 -88 22 -33 0 -81 -7 -106 -13z"/>
<path d="M11170 6971 c-9 -17 -4 -35 24 -97 42 -89 99 -170 127 -179 23 -7 49
10 49 32 0 8 -15 32 -33 54 -19 21 -48 69 -66 106 -45 97 -46 98 -69 101 -13
2 -25 -5 -32 -17z"/>
<path d="M11442 6978 c-18 -18 -16 -30 32 -138 78 -176 126 -234 165 -196 15
15 15 19 -1 44 -32 50 -98 182 -119 235 -26 66 -49 83 -77 55z"/>
<path d="M9071 6914 c-12 -15 -21 -32 -21 -39 0 -22 -96 -160 -128 -183 -37
-26 -41 -56 -12 -72 25 -13 61 9 114 72 34 39 116 185 116 206 0 13 -28 42
-40 42 -5 0 -18 -12 -29 -26z"/>
<path d="M8709 6793 c-23 -43 -57 -100 -75 -127 -26 -38 -31 -53 -23 -68 27
-50 78 -1 155 146 51 98 53 126 10 126 -20 0 -32 -13 -67 -77z"/>
<path d="M11721 6853 c-9 -18 2 -48 69 -185 27 -55 38 -68 56 -68 47 0 44 26
-14 151 -47 100 -60 119 -79 119 -12 0 -26 -8 -32 -17z"/>
<path d="M8427 6793 c-3 -5 -19 -44 -36 -88 -17 -45 -42 -96 -56 -115 -30 -41
-32 -66 -5 -80 27 -14 58 17 98 96 46 93 66 162 52 179 -13 16 -46 20 -53 8z"/>
<path d="M11987 6713 c-21 -20 5 -120 49 -185 17 -27 31 -38 49 -38 38 0 42
27 11 81 -15 27 -34 71 -42 99 -12 41 -19 50 -38 50 -12 0 -26 -3 -29 -7z"/>
<path d="M8093 6643 c-17 -49 -64 -147 -83 -173 -49 -69 5 -109 59 -43 37 45
93 175 89 206 -4 29 -55 37 -65 10z"/>
<path d="M12210 6635 c-21 -25 15 -168 50 -200 34 -31 76 7 51 46 -6 11 -18
50 -27 87 -19 80 -44 103 -74 67z"/>
<path d="M7761 6584 c-51 -36 -92 -184 -58 -213 30 -25 52 -5 64 59 6 32 21
72 32 89 26 36 27 57 3 70 -14 7 -25 6 -41 -5z"/>
<path d="M11930 6359 c-164 -32 -563 -78 -900 -103 -813 -61 -1728 -42 -2530
50 -308 36 -327 36 -352 2 -25 -32 -18 -71 15 -92 33 -21 470 -71 882 -101
921 -66 1923 -36 2745 81 96 13 190 29 208 35 61 20 69 95 12 124 -16 8 -30
15 -32 14 -2 -1 -23 -5 -48 -10z"/>
<path d="M11587 6012 c-37 -41 -11 -102 42 -102 55 0 80 61 41 100 -25 25 -62
26 -83 2z"/>
<path d="M7516 5558 c-22 -30 -20 -54 5 -79 27 -27 66 -21 92 12 17 24 18 30
6 55 -19 40 -79 47 -103 12z"/>
<path d="M9689 5537 c-14 -31 -5 -72 18 -82 47 -18 388 -37 593 -32 247 6 317
18 339 59 13 23 13 28 -3 53 -18 27 -20 27 -80 20 -176 -21 -423 -21 -743 0
l-112 8 -12 -26z"/>
</g>
</svg>
